<svg width="25" height="24" viewBox="0 0 25 24" fill="none" xmlns="http://www.w3.org/2000/svg">
<g id="github 1">
<g id="Group">
<path id="Vector" fill-rule="evenodd" clip-rule="evenodd" d="M12.9449 2.2476C7.42289 2.2476 2.9458 6.72386 2.9458 12.2467C2.9458 16.6646 5.81054 20.4126 9.78351 21.735C10.2835 21.8275 10.4668 21.5183 10.4668 21.2542C10.4668 21.0159 10.4576 20.2285 10.4534 19.3927C7.67203 19.9976 7.08459 18.2128 7.08459 18.2128C6.62963 17.0571 5.97469 16.7496 5.97469 16.7496C5.06727 16.1288 6.04302 16.1422 6.04302 16.1422C7.04709 16.213 7.57538 17.1729 7.57538 17.1729C8.46696 18.7011 9.91433 18.2595 10.4851 18.0037C10.5751 17.3571 10.8342 16.9163 11.1201 16.6663C8.89942 16.4138 6.56464 15.5564 6.56464 11.7251C6.56464 10.6335 6.95543 9.74108 7.59537 9.04115C7.49122 8.78867 7.14875 7.7721 7.69203 6.39472C7.69203 6.39472 8.53196 6.12642 10.4426 7.41963C11.24 7.19798 12.095 7.08716 12.9449 7.08299C13.7948 7.08716 14.6506 7.19798 15.4497 7.41963C17.3578 6.12558 18.1969 6.39472 18.1969 6.39472C18.741 7.7721 18.3986 8.78867 18.2952 9.04115C18.936 9.74108 19.3243 10.6335 19.3243 11.7251C19.3243 15.5656 16.9853 16.4113 14.7589 16.6588C15.1172 16.9688 15.4372 17.5779 15.4372 18.5103C15.4372 19.8485 15.4255 20.9251 15.4255 21.2542C15.4255 21.52 15.6055 21.8325 16.1121 21.7342C20.0834 20.4101 22.9448 16.6638 22.9448 12.2475C22.944 6.72469 18.4669 2.2476 12.9449 2.2476Z" fill="#21D87D"/>
<path id="Vector_2" d="M6.73306 16.6046C6.7114 16.6546 6.63307 16.6696 6.56141 16.6354C6.48892 16.6029 6.44809 16.5346 6.47142 16.4855C6.49308 16.4346 6.57141 16.4205 6.6439 16.4546C6.71639 16.4863 6.75806 16.5546 6.73306 16.6046Z" fill="#21D87D"/>
<path id="Vector_3" d="M7.1379 17.0562C7.09041 17.1004 6.99708 17.0796 6.93376 17.0104C6.86793 16.9404 6.85626 16.8471 6.90459 16.8029C6.95375 16.7588 7.04375 16.7796 7.10957 16.8496C7.1754 16.9187 7.1879 17.0112 7.1379 17.0562Z" fill="#21D87D"/>
<path id="Vector_4" d="M7.53205 17.632C7.47039 17.6745 7.3704 17.6345 7.30873 17.5462C7.24707 17.457 7.24707 17.3504 7.3104 17.3079C7.37206 17.2654 7.47122 17.3037 7.53371 17.3921C7.59454 17.482 7.59454 17.5887 7.53205 17.632Z" fill="#21D87D"/>
<path id="Vector_5" d="M8.07191 18.1887C8.01691 18.2495 7.90026 18.2328 7.81527 18.1503C7.72777 18.0695 7.70361 17.9553 7.7586 17.8945C7.81443 17.8337 7.93192 17.8512 8.01775 17.9329C8.10441 18.0137 8.13024 18.1287 8.07191 18.1887Z" fill="#21D87D"/>
<path id="Vector_6" d="M8.81784 18.5111C8.79367 18.5894 8.68118 18.6253 8.56786 18.5919C8.45454 18.5578 8.38038 18.4661 8.40371 18.3869C8.42704 18.3078 8.54036 18.2711 8.65452 18.307C8.76701 18.3403 8.84117 18.4319 8.81784 18.5111Z" fill="#21D87D"/>
<path id="Vector_7" d="M9.63602 18.5711C9.63852 18.6536 9.54269 18.7219 9.42353 18.7236C9.30438 18.7261 9.20689 18.6594 9.20605 18.5786C9.20605 18.4953 9.30021 18.4278 9.41937 18.4253C9.53852 18.4228 9.63602 18.4895 9.63602 18.5711Z" fill="#21D87D"/>
<path id="Vector_8" d="M10.3977 18.4419C10.4119 18.5219 10.3294 18.6053 10.2111 18.6269C10.0952 18.6486 9.98775 18.5986 9.97275 18.5186C9.95858 18.4361 10.0427 18.3536 10.1586 18.332C10.2761 18.3111 10.3827 18.3594 10.3977 18.4419Z" fill="#21D87D"/>
</g>
</g>
</svg>
