<svg width="25" height="24" viewBox="0 0 25 24" fill="none" xmlns="http://www.w3.org/2000/svg">
<g id="instagram">
<g id="Group">
<path id="Vector" d="M12.5815 3.71609C15.2585 3.71609 15.576 3.72561 16.6329 3.77165C17.7258 3.81927 18.8513 4.05581 19.6475 4.81225C20.4513 5.57584 20.6928 6.6347 20.7429 7.6761C20.7914 8.6802 20.8014 8.98182 20.8014 11.525C20.8014 14.0682 20.7914 14.3698 20.7429 15.3739C20.6936 16.4066 20.4388 17.4861 19.6475 18.2377C18.8438 19.0013 17.73 19.2307 16.6329 19.2783C15.576 19.3244 15.2585 19.3339 12.5815 19.3339C9.90446 19.3339 9.58696 19.3244 8.53002 19.2783C7.45136 19.2315 6.3 18.9839 5.51544 18.2377C4.71585 17.4781 4.4702 16.4089 4.42007 15.3739C4.37161 14.3698 4.36158 14.0682 4.36158 11.525C4.36158 8.98182 4.37161 8.6802 4.42007 7.6761C4.46937 6.6474 4.72671 5.56155 5.51544 4.81225C6.31755 4.05026 7.43632 3.81927 8.53002 3.77165C9.58696 3.72561 9.90446 3.71609 12.5815 3.71609ZM12.5815 2C9.85851 2 9.51678 2.01111 8.4473 2.05715C6.8974 2.12462 5.35836 2.53419 4.23792 3.59861C3.11331 4.667 2.68635 6.12591 2.61533 7.59752C2.56687 8.61352 2.55518 8.93816 2.55518 11.525C2.55518 14.1118 2.56687 14.4365 2.61533 15.4525C2.68635 16.9233 3.11916 18.3893 4.23792 19.4514C5.36171 20.519 6.89991 20.9254 8.4473 20.9928C9.51678 21.0389 9.85851 21.05 12.5815 21.05C15.3045 21.05 15.6462 21.0389 16.7157 20.9928C18.2647 20.9254 19.8054 20.515 20.925 19.4514C22.0505 18.3822 22.4766 16.9241 22.5476 15.4525C22.5961 14.4365 22.6078 14.1118 22.6078 11.525C22.6078 8.93816 22.5961 8.61352 22.5476 7.59752C22.4766 6.12512 22.0446 4.66224 20.925 3.59861C19.8029 2.53261 18.2606 2.12382 16.7157 2.05715C15.6462 2.01111 15.3045 2 12.5815 2Z" fill="#21D87D"/>
<path id="Vector_2" d="M12.5814 6.63394C9.73808 6.63394 7.43286 8.8239 7.43286 11.525C7.43286 14.2262 9.73808 16.4161 12.5814 16.4161C15.4247 16.4161 17.7299 14.2262 17.7299 11.525C17.7299 8.8239 15.4247 6.63394 12.5814 6.63394ZM12.5814 14.7C10.7357 14.7 9.23927 13.2784 9.23927 11.525C9.23927 9.77163 10.7357 8.35003 12.5814 8.35003C14.427 8.35003 15.9235 9.77163 15.9235 11.525C15.9235 13.2784 14.427 14.7 12.5814 14.7Z" fill="#21D87D"/>
<path id="Vector_3" d="M17.9339 7.58322C18.5984 7.58322 19.137 7.07149 19.137 6.44023C19.137 5.80896 18.5984 5.29723 17.9339 5.29723C17.2694 5.29723 16.7307 5.80896 16.7307 6.44023C16.7307 7.07149 17.2694 7.58322 17.9339 7.58322Z" fill="#21D87D"/>
</g>
</g>
</svg>
