<svg width="25" height="24" viewBox="0 0 25 24" fill="none" xmlns="http://www.w3.org/2000/svg">
<g id="linkedin">
<g id="Group">
<path id="Path_2520" d="M19.621 18.4174H16.7923V14.2093C16.7923 13.2057 16.7735 11.9144 15.3211 11.9144C13.848 11.9144 13.6223 13.0073 13.6223 14.1369V18.4174H10.7946V9.7634H13.5103V10.9457H13.548C14.102 10.0467 15.1311 9.50961 16.227 9.54803C19.0942 9.54803 19.6219 11.3398 19.6219 13.6695L19.621 18.4174ZM7.60287 8.58022C6.69606 8.58022 5.96139 7.88228 5.96139 7.02081C5.96139 6.15934 6.69606 5.4614 7.60287 5.4614C8.50968 5.4614 9.24435 6.15934 9.24435 7.02081C9.24435 7.88228 8.50968 8.58022 7.60287 8.58022ZM9.01671 18.4174H6.18527V9.7634H9.01671V18.4174ZM21.031 2.96635H4.76391C3.99537 2.9583 3.36512 3.54364 3.35571 4.27375V19.791C3.36512 20.522 3.99537 21.1073 4.76391 21.0993H21.031C21.8015 21.1082 22.4345 20.5229 22.4449 19.791V4.27285C22.4336 3.54096 21.8005 2.95562 21.031 2.96545" fill="#21D87D"/>
</g>
</g>
</svg>
