<svg width="25" height="24" viewBox="0 0 25 24" fill="none" xmlns="http://www.w3.org/2000/svg">
<g id="Icon / Twitter">
<path id="Vector" d="M21.5279 6.7174C21.0635 7.33692 20.5021 7.87733 19.8654 8.31776C19.8654 8.47959 19.8654 8.64142 19.8654 8.81225C19.8705 11.7511 18.6966 14.5691 16.6069 16.6345C14.5171 18.6999 11.6863 19.8399 8.74911 19.7989C7.05105 19.8046 5.37473 19.4169 3.85148 18.6661C3.76934 18.6302 3.71637 18.549 3.71668 18.4593V18.3604C3.71668 18.2313 3.82129 18.1267 3.95033 18.1267C5.61948 18.0716 7.22908 17.4929 8.5514 16.4724C7.04059 16.4419 5.68125 15.5469 5.05566 14.1707C5.02407 14.0956 5.0339 14.0093 5.08163 13.9432C5.12935 13.8771 5.20806 13.8407 5.28931 13.8471C5.74848 13.8932 6.21224 13.8505 6.65526 13.7212C4.98745 13.375 3.73427 11.9904 3.55492 10.2957C3.54855 10.2144 3.58498 10.1357 3.65106 10.0879C3.71713 10.0402 3.8033 10.0303 3.87844 10.062C4.326 10.2595 4.80915 10.3635 5.2983 10.3676C3.8369 9.40846 3.20567 7.58405 3.76161 5.92622C3.819 5.76513 3.95687 5.64612 4.12456 5.61294C4.29224 5.57975 4.46502 5.63728 4.57938 5.76439C6.55145 7.86325 9.2611 9.11396 12.137 9.25279C12.0634 8.95885 12.0272 8.65676 12.0292 8.35372C12.0561 6.76472 13.0393 5.34921 14.5185 4.76987C15.9976 4.19054 17.68 4.56203 18.7781 5.71044C19.5265 5.56785 20.2501 5.31645 20.9258 4.96421C20.9753 4.93331 21.0381 4.93331 21.0876 4.96421C21.1185 5.01373 21.1185 5.07652 21.0876 5.12604C20.7603 5.87552 20.2074 6.50412 19.506 6.92419C20.1202 6.85296 20.7236 6.70807 21.3033 6.49264C21.3521 6.45942 21.4162 6.45942 21.465 6.49264C21.5059 6.51134 21.5365 6.54711 21.5486 6.59042C21.5607 6.63373 21.5531 6.68018 21.5279 6.7174Z" fill="#21D87D"/>
</g>
</svg>
